<mxfile host="app.diagrams.net" modified="2023-05-02T08:47:47.122Z" agent="5.0 (X11; Ubuntu)" etag="_PfOtWwjOgV0w9Sw4Kfn" version="20.8.23" type="github">
  <diagram name="Page-1" id="LsthsXFHl_6-df3M3dnc">
    <mxGraphModel dx="1367" dy="1276" grid="1" gridSize="10" guides="1" tooltips="1" connect="1" arrows="1" fold="1" page="1" pageScale="1" pageWidth="700" pageHeight="900" math="0" shadow="0">
      <root>
        <mxCell id="0" />
        <mxCell id="1" parent="0" />
        <mxCell id="31XeDR471OlyRNw3_M1--8" style="edgeStyle=orthogonalEdgeStyle;rounded=0;orthogonalLoop=1;jettySize=auto;html=1;exitX=0.5;exitY=0;exitDx=0;exitDy=0;entryX=0.5;entryY=1;entryDx=0;entryDy=0;fontSize=15;" edge="1" parent="1" source="31XeDR471OlyRNw3_M1--1" target="31XeDR471OlyRNw3_M1--7">
          <mxGeometry relative="1" as="geometry" />
        </mxCell>
        <mxCell id="31XeDR471OlyRNw3_M1--14" value="part of" style="edgeLabel;html=1;align=center;verticalAlign=middle;resizable=0;points=[];fontSize=15;" vertex="1" connectable="0" parent="31XeDR471OlyRNw3_M1--8">
          <mxGeometry x="-0.2353" y="-2" relative="1" as="geometry">
            <mxPoint as="offset" />
          </mxGeometry>
        </mxCell>
        <mxCell id="31XeDR471OlyRNw3_M1--9" value="has identifier" style="edgeStyle=orthogonalEdgeStyle;rounded=0;orthogonalLoop=1;jettySize=auto;html=1;entryX=0;entryY=0.5;entryDx=0;entryDy=0;fontSize=15;" edge="1" parent="1" source="31XeDR471OlyRNw3_M1--1" target="31XeDR471OlyRNw3_M1--4">
          <mxGeometry relative="1" as="geometry" />
        </mxCell>
        <mxCell id="31XeDR471OlyRNw3_M1--10" value="has retraction notice" style="edgeStyle=orthogonalEdgeStyle;rounded=0;orthogonalLoop=1;jettySize=auto;html=1;fontSize=15;entryX=1;entryY=0;entryDx=0;entryDy=0;" edge="1" parent="1" source="31XeDR471OlyRNw3_M1--1" target="31XeDR471OlyRNw3_M1--2">
          <mxGeometry relative="1" as="geometry">
            <mxPoint x="280" y="360" as="targetPoint" />
          </mxGeometry>
        </mxCell>
        <mxCell id="31XeDR471OlyRNw3_M1--25" value="has retraction reason" style="edgeStyle=orthogonalEdgeStyle;rounded=0;orthogonalLoop=1;jettySize=auto;html=1;exitX=1;exitY=1;exitDx=0;exitDy=0;entryX=0;entryY=0.5;entryDx=0;entryDy=0;fontSize=15;" edge="1" parent="1" source="31XeDR471OlyRNw3_M1--1" target="31XeDR471OlyRNw3_M1--23">
          <mxGeometry x="0.2906" relative="1" as="geometry">
            <Array as="points">
              <mxPoint x="360" y="248" />
              <mxPoint x="360" y="400" />
            </Array>
            <mxPoint as="offset" />
          </mxGeometry>
        </mxCell>
        <mxCell id="31XeDR471OlyRNw3_M1--1" value="Retracted article" style="ellipse;whiteSpace=wrap;html=1;fontSize=15;" vertex="1" parent="1">
          <mxGeometry x="220" y="180" width="120" height="80" as="geometry" />
        </mxCell>
        <mxCell id="31XeDR471OlyRNw3_M1--11" style="edgeStyle=orthogonalEdgeStyle;rounded=0;orthogonalLoop=1;jettySize=auto;html=1;entryX=0;entryY=0.5;entryDx=0;entryDy=0;exitX=1;exitY=0.5;exitDx=0;exitDy=0;fontSize=15;" edge="1" parent="1" source="31XeDR471OlyRNw3_M1--2" target="31XeDR471OlyRNw3_M1--3">
          <mxGeometry relative="1" as="geometry">
            <mxPoint x="330" y="510" as="sourcePoint" />
          </mxGeometry>
        </mxCell>
        <mxCell id="31XeDR471OlyRNw3_M1--15" value="has identifier" style="edgeLabel;html=1;align=center;verticalAlign=middle;resizable=0;points=[];fontSize=15;" vertex="1" connectable="0" parent="31XeDR471OlyRNw3_M1--11">
          <mxGeometry x="-0.1667" y="-2" relative="1" as="geometry">
            <mxPoint x="10" y="-2" as="offset" />
          </mxGeometry>
        </mxCell>
        <mxCell id="31XeDR471OlyRNw3_M1--12" style="edgeStyle=orthogonalEdgeStyle;rounded=0;orthogonalLoop=1;jettySize=auto;html=1;entryX=0;entryY=0.5;entryDx=0;entryDy=0;exitX=0.5;exitY=1;exitDx=0;exitDy=0;fontSize=15;" edge="1" parent="1" source="31XeDR471OlyRNw3_M1--2" target="31XeDR471OlyRNw3_M1--6">
          <mxGeometry relative="1" as="geometry">
            <mxPoint x="270" y="550" as="sourcePoint" />
          </mxGeometry>
        </mxCell>
        <mxCell id="31XeDR471OlyRNw3_M1--16" value="has prefix" style="edgeLabel;html=1;align=center;verticalAlign=middle;resizable=0;points=[];fontSize=15;" vertex="1" connectable="0" parent="31XeDR471OlyRNw3_M1--12">
          <mxGeometry x="-0.5333" y="2" relative="1" as="geometry">
            <mxPoint x="8" y="35" as="offset" />
          </mxGeometry>
        </mxCell>
        <mxCell id="31XeDR471OlyRNw3_M1--2" value="Retraction notice" style="ellipse;whiteSpace=wrap;html=1;fontSize=15;" vertex="1" parent="1">
          <mxGeometry x="180" y="470" width="120" height="80" as="geometry" />
        </mxCell>
        <mxCell id="31XeDR471OlyRNw3_M1--13" value="has prefix" style="edgeStyle=orthogonalEdgeStyle;rounded=0;orthogonalLoop=1;jettySize=auto;html=1;entryX=1;entryY=0.5;entryDx=0;entryDy=0;fontSize=15;" edge="1" parent="1" source="31XeDR471OlyRNw3_M1--3" target="31XeDR471OlyRNw3_M1--6">
          <mxGeometry x="0.0664" y="10" relative="1" as="geometry">
            <mxPoint as="offset" />
          </mxGeometry>
        </mxCell>
        <mxCell id="31XeDR471OlyRNw3_M1--3" value="Retraction notice identifier" style="ellipse;whiteSpace=wrap;html=1;fontSize=15;" vertex="1" parent="1">
          <mxGeometry x="450" y="470" width="120" height="80" as="geometry" />
        </mxCell>
        <mxCell id="31XeDR471OlyRNw3_M1--4" value="Article identifier" style="ellipse;whiteSpace=wrap;html=1;fontSize=15;" vertex="1" parent="1">
          <mxGeometry x="520" y="180" width="120" height="80" as="geometry" />
        </mxCell>
        <mxCell id="31XeDR471OlyRNw3_M1--19" value="identifies" style="edgeStyle=orthogonalEdgeStyle;rounded=0;orthogonalLoop=1;jettySize=auto;html=1;entryX=0;entryY=0.5;entryDx=0;entryDy=0;exitX=0.5;exitY=1;exitDx=0;exitDy=0;fontSize=15;" edge="1" parent="1" source="31XeDR471OlyRNw3_M1--6" target="31XeDR471OlyRNw3_M1--18">
          <mxGeometry x="-0.2157" relative="1" as="geometry">
            <mxPoint as="offset" />
          </mxGeometry>
        </mxCell>
        <mxCell id="31XeDR471OlyRNw3_M1--6" value="Prefix" style="ellipse;whiteSpace=wrap;html=1;fontSize=15;" vertex="1" parent="1">
          <mxGeometry x="330" y="600" width="120" height="80" as="geometry" />
        </mxCell>
        <mxCell id="31XeDR471OlyRNw3_M1--7" value="Retractable" style="ellipse;whiteSpace=wrap;html=1;fontSize=15;" vertex="1" parent="1">
          <mxGeometry x="220" y="30" width="120" height="80" as="geometry" />
        </mxCell>
        <mxCell id="31XeDR471OlyRNw3_M1--21" value="publishes" style="edgeStyle=orthogonalEdgeStyle;rounded=0;orthogonalLoop=1;jettySize=auto;html=1;exitX=0.5;exitY=0;exitDx=0;exitDy=0;fontSize=15;" edge="1" parent="1" source="31XeDR471OlyRNw3_M1--18" target="31XeDR471OlyRNw3_M1--1">
          <mxGeometry relative="1" as="geometry" />
        </mxCell>
        <mxCell id="31XeDR471OlyRNw3_M1--22" value="publishes" style="edgeStyle=orthogonalEdgeStyle;rounded=0;orthogonalLoop=1;jettySize=auto;html=1;exitX=0.5;exitY=1;exitDx=0;exitDy=0;fontSize=15;" edge="1" parent="1" source="31XeDR471OlyRNw3_M1--18" target="31XeDR471OlyRNw3_M1--2">
          <mxGeometry relative="1" as="geometry" />
        </mxCell>
        <mxCell id="31XeDR471OlyRNw3_M1--18" value="Publisher" style="ellipse;whiteSpace=wrap;html=1;fontSize=15;" vertex="1" parent="1">
          <mxGeometry x="70" y="250" width="120" height="80" as="geometry" />
        </mxCell>
        <mxCell id="31XeDR471OlyRNw3_M1--23" value="Retraction reason" style="ellipse;whiteSpace=wrap;html=1;fontSize=15;" vertex="1" parent="1">
          <mxGeometry x="650" y="360" width="120" height="80" as="geometry" />
        </mxCell>
      </root>
    </mxGraphModel>
  </diagram>
</mxfile>
